<svg width="48" height="48" viewBox="0 0 48 48" fill="none" xmlns="http://www.w3.org/2000/svg">
<path d="M8.92786 37.0547C8.73586 37.1507 8.54386 37.1507 8.25586 37.1507C8.44786 37.1507 8.73586 37.1507 8.92786 37.0547Z" fill="#5EDD5B"/>
<path d="M11.4234 13.2473C11.3274 13.1513 11.3274 12.9593 11.2314 12.8633C11.3274 12.9593 11.4234 13.0553 11.4234 13.2473Z" fill="#5EDD5B"/>
<path d="M39.2639 37.1513H39.6479C39.5519 37.1513 39.4559 37.1513 39.2639 37.1513ZM11.2319 12.8633C11.3279 12.9593 11.3279 13.1513 11.4239 13.2473C11.4239 13.0553 11.3279 12.9593 11.2319 12.8633Z" fill="#5EDD5B"/>
<path d="M42.8159 12.4791C42.1439 11.4231 40.8959 10.8471 39.7439 10.8471C35.9999 6.33508 30.3359 3.45508 23.9999 3.45508C17.6639 3.45508 11.9999 6.33508 8.25592 10.8471C7.00792 10.8471 5.85592 11.4231 5.18392 12.4791C3.07192 15.9351 1.91992 19.9671 1.91992 23.9991C1.91992 28.0311 3.07192 32.0631 5.18392 35.5191C5.85592 36.5751 7.00792 37.1511 8.06392 37.1511H8.15992C10.9439 40.4151 14.5919 42.8151 18.9119 43.8711C20.5439 44.2551 22.1759 44.4471 23.9039 44.4471C25.6319 44.4471 27.2639 44.2551 28.8959 43.8711C33.1199 42.8151 36.8639 40.4151 39.6479 37.1511H39.8399C40.9919 37.1511 42.1439 36.5751 42.7199 35.5191C44.9279 32.0631 45.9839 28.0311 45.9839 23.9991C46.0799 19.9671 44.9279 15.9351 42.8159 12.4791ZM11.0399 16.1271C11.6159 15.2631 11.7119 14.2071 11.4239 13.2471C11.4239 13.1511 11.3279 12.9591 11.2319 12.8631C11.3279 12.9591 11.3279 13.1511 11.4239 13.2471C14.4959 9.69508 19.0079 7.48708 23.9999 7.48708C29.0879 7.48708 33.5039 9.69508 36.5759 13.2471C36.2879 14.2071 36.3839 15.2631 36.9599 16.1271C37.9199 17.6631 38.5919 19.2951 38.8799 21.0231C34.3679 19.0071 29.2799 17.8551 23.9999 17.8551C18.7199 17.8551 13.6319 19.0071 9.11992 21.0231C9.50392 19.2951 10.0799 17.5671 11.0399 16.1271ZM21.0239 40.3191C16.9919 39.5511 14.1119 37.7271 11.4239 34.7511C11.7119 33.7911 11.6159 32.7351 11.0399 31.8711C9.98392 30.2391 9.31192 28.3191 9.02392 26.4951C9.11992 26.4951 9.31192 26.3991 9.40792 26.3991H9.50392C9.69592 26.3991 9.88792 26.3031 10.1759 26.3031H11.0399C16.8959 26.3031 21.6959 31.0071 21.6959 36.8631C21.5999 38.1111 21.4079 39.2631 21.0239 40.3191ZM23.9999 28.0311C22.1759 28.0311 20.7359 26.5911 20.7359 24.7671C20.7359 22.9431 22.1759 21.5031 23.9999 21.5031C25.8239 21.5031 27.2639 22.9431 27.2639 24.7671C27.2639 26.5911 25.8239 28.0311 23.9999 28.0311ZM36.9599 31.9671C36.3839 32.8311 36.2879 33.8871 36.5759 34.8471C34.1759 37.6311 30.7199 39.6471 26.8799 40.3191C26.4959 39.2631 26.3039 38.1111 26.3039 36.9591C26.3039 31.1031 31.0079 26.3991 36.8639 26.3991C37.5359 26.3991 38.2079 26.4951 38.8799 26.5911C38.6879 28.4151 37.9199 30.2391 36.9599 31.9671Z" fill="#5EDD5B"/>
</svg>
