<svg width="20" height="20" viewBox="0 0 20 20" fill="none" xmlns="http://www.w3.org/2000/svg">
<path d="M18.1507 4.22779C18.1503 4.22135 18.1496 4.2149 18.1485 4.20849C18.1235 4.17278 18.0928 4.14205 18.0671 4.10705C17.8803 3.85268 17.6827 3.60785 17.474 3.37252C17.4169 3.30821 17.3597 3.24462 17.3011 3.18174C17.0863 2.95169 16.861 2.73231 16.6252 2.52369C16.5816 2.48509 16.5409 2.44511 16.4973 2.40722C15.9162 1.9094 15.2799 1.47977 14.601 1.12685C14.5738 1.11257 14.5453 1.10043 14.5174 1.08611C14.215 0.932464 13.905 0.794349 13.5885 0.672394C13.5171 0.646689 13.452 0.622365 13.3842 0.600929C13.1027 0.499489 12.8169 0.41065 12.5268 0.334413C12.441 0.311554 12.3553 0.287984 12.2681 0.267972C11.9823 0.201531 11.6965 0.15079 11.4043 0.109343C11.3157 0.0964899 11.2285 0.079325 11.1392 0.0686074C10.3865 -0.0228691 9.62548 -0.0228691 8.87274 0.0686074C8.78344 0.079325 8.69627 0.0964899 8.60765 0.109343C8.31542 0.15079 8.02676 0.201531 7.74379 0.267972C7.65662 0.287984 7.57088 0.311554 7.48514 0.334413C7.19313 0.410608 6.90735 0.499447 6.62773 0.600929C6.55627 0.625211 6.49125 0.649535 6.42339 0.672394C6.10693 0.794349 5.79687 0.932422 5.49451 1.08611C5.46663 1.10039 5.43808 1.11253 5.41091 1.12685C4.72971 1.4794 4.0913 1.90898 3.50815 2.40722C3.46457 2.44507 3.42384 2.48509 3.38026 2.52369C3.14208 2.73327 2.91676 2.95265 2.70433 3.18174C2.64576 3.24462 2.58858 3.30821 2.53143 3.37252C2.32231 3.60735 2.12462 3.85218 1.9384 4.10701C1.9127 4.14201 1.88197 4.17274 1.85693 4.20845C1.85367 4.21469 1.85078 4.22114 1.84835 4.22775C-0.616116 7.68155 -0.616116 12.319 1.84835 15.7728C1.85078 15.7794 1.85362 15.7858 1.85693 15.7921C1.88192 15.8278 1.91265 15.8585 1.9384 15.8935C2.12466 16.1479 2.32231 16.3927 2.53143 16.628C2.58858 16.6923 2.64576 16.7559 2.70433 16.8188C2.91965 17.0489 3.14493 17.2682 3.38026 17.4769C3.42384 17.5155 3.46457 17.5554 3.50815 17.5933C4.08925 18.0912 4.72552 18.5208 5.40446 18.8737C5.43163 18.888 5.46018 18.9001 5.48807 18.9144C5.79042 19.0681 6.10044 19.2062 6.41694 19.3282C6.48841 19.3539 6.55342 19.3782 6.62129 19.3996C6.90279 19.5011 7.18861 19.5899 7.4787 19.6661C7.56444 19.689 7.65018 19.7126 7.73734 19.7326C8.02316 19.799 8.30893 19.8498 8.6012 19.8912C8.68979 19.9041 8.77695 19.9212 8.86629 19.9319C9.61899 20.0234 10.38 20.0234 11.1327 19.9319C11.222 19.9212 11.3092 19.9041 11.3978 19.8912C11.69 19.8498 11.9787 19.799 12.2617 19.7326C12.3488 19.7126 12.4346 19.689 12.5203 19.6661C12.8128 19.5899 13.0986 19.5011 13.3777 19.3996C13.4492 19.3753 13.5142 19.351 13.5821 19.3282C13.8985 19.2062 14.2086 19.0681 14.511 18.9144C14.5388 18.9002 14.5674 18.888 14.5946 18.8737C15.2735 18.5207 15.9098 18.0912 16.4909 17.5933C16.5344 17.5554 16.5752 17.5155 16.6188 17.4769C16.8569 17.2677 17.0823 17.0484 17.2947 16.8188C17.3533 16.7559 17.4104 16.6923 17.4676 16.628C17.6767 16.3927 17.8744 16.1479 18.0606 15.8935C18.0863 15.8585 18.1171 15.8278 18.1421 15.7921C18.1454 15.7858 18.1482 15.7794 18.1507 15.7728C20.6151 12.319 20.6151 7.68159 18.1507 4.22779ZM17.3354 5.57968C18.0188 6.70507 18.4314 7.97377 18.5408 9.28584H14.2609C14.2085 8.43446 14.0745 7.59011 13.8608 6.76435C15.0697 6.53794 16.2399 6.13896 17.3354 5.57968ZM11.8208 1.62341C11.8609 1.63271 11.8994 1.64556 11.9394 1.65486C12.1952 1.71489 12.4489 1.78347 12.6968 1.86921C12.7347 1.88206 12.7719 1.89709 12.809 1.91066C13.0548 1.9964 13.297 2.09143 13.5343 2.19647C13.5757 2.21577 13.6165 2.23721 13.6579 2.25651C13.8851 2.36465 14.1071 2.48158 14.3238 2.60734L14.4667 2.69379C14.6725 2.81956 14.8726 2.95412 15.0669 3.09751C15.1169 3.13393 15.1669 3.16897 15.2162 3.20895C15.4068 3.35184 15.5892 3.50498 15.7635 3.66839C15.8093 3.70983 15.8564 3.75057 15.9014 3.79344C16.0844 3.96706 16.2587 4.15068 16.4273 4.34075C16.4488 4.36574 16.4716 4.3886 16.493 4.41221C15.5256 4.87328 14.5007 5.20251 13.4457 5.39107C12.9569 4.04752 12.3113 2.76635 11.5222 1.57418C11.6215 1.59202 11.723 1.60202 11.8208 1.62341ZM7.17082 9.2858C7.22717 8.5127 7.35879 7.74694 7.56381 6.99939C8.37337 7.09555 9.1879 7.14324 10.0032 7.14227C10.8192 7.14202 11.6344 7.09312 12.4446 6.99579C12.6493 7.74455 12.7802 8.51153 12.8354 9.2858H7.17082ZM12.8354 10.7148C12.7791 11.4879 12.6475 12.2537 12.4425 13.0012C11.6329 12.9051 10.8184 12.8574 10.0031 12.8584C9.18715 12.8574 8.3719 12.9051 7.56163 13.0012C7.3572 12.2537 7.22633 11.4879 7.17077 10.7148H12.8354ZM10.0031 1.89211C10.8162 3.04455 11.485 4.29235 11.9945 5.60756C11.333 5.67781 10.6683 5.71311 10.0031 5.71331C9.33866 5.71252 8.67467 5.67702 8.01391 5.60685C8.524 4.29252 9.19196 3.04513 10.0031 1.89211ZM3.5797 4.33999C3.74763 4.14992 3.92267 3.9663 4.10558 3.79268C4.15058 3.74981 4.19777 3.70908 4.24348 3.66763C4.41974 3.50712 4.60219 3.35397 4.79079 3.2082C4.84011 3.17031 4.8901 3.13673 4.94013 3.09675C5.13447 2.95386 5.33455 2.81927 5.54032 2.69304L5.6832 2.60659C5.89994 2.4799 6.12191 2.36293 6.34912 2.25575C6.39056 2.23645 6.4313 2.21502 6.47275 2.19572C6.70996 2.08854 6.95219 1.99351 7.19799 1.9099C7.23512 1.89634 7.26945 1.88131 7.31014 1.86845C7.55807 1.78556 7.81031 1.71698 8.06754 1.6541C8.10756 1.64481 8.14612 1.63196 8.18685 1.62337C8.28474 1.60194 8.38622 1.59193 8.48552 1.57406C7.6961 2.76643 7.05028 4.04786 6.56134 5.39166C5.50636 5.2031 4.48141 4.87387 3.51397 4.4128C3.53541 4.38785 3.55827 4.36499 3.5797 4.33999ZM2.67084 5.57968C3.76609 6.13892 4.93603 6.5379 6.14477 6.76435C5.9313 7.59015 5.79754 8.4345 5.74537 9.28584H1.46549C1.57492 7.97377 1.98755 6.70507 2.67084 5.57968ZM2.67084 14.421C1.98751 13.2956 1.57488 12.0269 1.46549 10.7148H5.74537C5.79779 11.5662 5.93176 12.4106 6.14548 13.2363C4.93653 13.4627 3.76634 13.8617 2.67084 14.421ZM8.18543 18.3772C8.14541 18.3679 8.10685 18.3551 8.06682 18.3458C7.81103 18.2857 7.55736 18.2172 7.30943 18.1314C7.27154 18.1186 7.23441 18.1035 7.19723 18.09C6.95144 18.0042 6.70925 17.9092 6.47199 17.8042C6.43055 17.7849 6.38981 17.7634 6.34836 17.7441C6.12116 17.636 5.89919 17.5191 5.68245 17.3933L5.53956 17.3068C5.33379 17.1811 5.13372 17.0465 4.93937 16.9031C4.88935 16.8667 4.83936 16.8317 4.79004 16.7917C4.59951 16.6488 4.41706 16.4957 4.24273 16.3322C4.19701 16.2908 4.14983 16.2501 4.10482 16.2072C3.92191 16.0336 3.74758 15.85 3.57895 15.6599C3.55751 15.6349 3.53466 15.612 3.51322 15.5884C4.48069 15.1274 5.50561 14.7981 6.56058 14.6096C7.04932 15.9531 7.69493 17.2343 8.48402 18.4265C8.38475 18.4087 8.28331 18.3987 8.18543 18.3772ZM10.0031 18.1086C9.19 16.9561 8.52123 15.7083 8.01177 14.3931C9.33502 14.2507 10.6697 14.2507 11.993 14.3931L11.9923 14.3938C11.4823 15.7081 10.8143 16.9555 10.0031 18.1086ZM16.4266 15.6606C16.2586 15.8507 16.0836 16.0343 15.9007 16.208C15.8557 16.2508 15.8085 16.2916 15.7628 16.333C15.5865 16.494 15.4041 16.6472 15.2155 16.7924C15.1662 16.8303 15.1162 16.8675 15.0661 16.9039C14.8718 17.0468 14.6717 17.1814 14.466 17.3076L14.3231 17.394C14.1068 17.5203 13.8848 17.6372 13.6571 17.7449C13.6157 17.7642 13.575 17.7856 13.5335 17.8049C13.2963 17.9121 13.0541 18.0071 12.8083 18.0907C12.7711 18.1043 12.7368 18.1193 12.6961 18.1322C12.4482 18.2151 12.196 18.2836 11.9387 18.3465C11.8987 18.3558 11.8601 18.3687 11.8194 18.3773C11.7215 18.3987 11.62 18.4087 11.5207 18.4266C12.3098 17.2344 12.9555 15.9532 13.4442 14.6097C14.4992 14.7982 15.5241 15.1275 16.4915 15.5885C16.4709 15.6128 16.448 15.6356 16.4266 15.6606ZM17.3354 14.421C16.2402 13.8618 15.0702 13.4628 13.8615 13.2363C14.075 12.4105 14.2087 11.5662 14.2609 10.7148H18.5408C18.4313 12.0269 18.0187 13.2956 17.3354 14.421Z" fill="white"/>
</svg>
